<svg width="300" height="180" viewBox="0 0 300 180" xmlns="http://www.w3.org/2000/svg">
  <!-- Sofa Design matching the reference image -->
  <g transform="translate(75, 25)">
    <!-- Back cushion with curved top -->
    <path d="M25 45 Q20 25 35 25 Q45 20 75 20 Q105 20 115 25 Q130 25 125 45 L125 70 Q130 75 115 75 L35 75 Q20 75 25 70 Z" fill="#8B4513" stroke="#654321" stroke-width="2"/>
    
    <!-- Seat cushion - more rounded -->
    <path d="M35 70 Q30 65 40 65 L110 65 Q120 65 115 70 Q120 80 110 80 L40 80 Q30 80 35 70 Z" fill="#CD853F" stroke="#8B4513" stroke-width="2"/>
    
    <!-- Left armrest -->
    <path d="M25 45 Q15 40 15 55 Q15 70 25 70" fill="#8B4513" stroke="#654321" stroke-width="2"/>
    
    <!-- Right armrest -->
    <path d="M125 45 Q135 40 135 55 Q135 70 125 70" fill="#8B4513" stroke="#654321" stroke-width="2"/>
    
    <!-- Legs -->
    <ellipse cx="45" cy="85" rx="3" ry="8" fill="#654321"/>
    <ellipse cx="105" cy="85" rx="3" ry="8" fill="#654321"/>
    
    <!-- Decorative dots pattern on back cushion -->
    <g fill="white" opacity="0.9">
      <!-- Top row -->
      <circle cx="50" cy="35" r="1.5"/>
      <circle cx="58" cy="33" r="1.5"/>
      <circle cx="66" cy="35" r="1.5"/>
      <circle cx="74" cy="33" r="1.5"/>
      <circle cx="82" cy="35" r="1.5"/>
      <circle cx="90" cy="33" r="1.5"/>
      <circle cx="98" cy="35" r="1.5"/>
      
      <!-- Second row -->
      <circle cx="46" cy="42" r="1.5"/>
      <circle cx="54" cy="40" r="1.5"/>
      <circle cx="62" cy="42" r="1.5"/>
      <circle cx="70" cy="40" r="1.5"/>
      <circle cx="78" cy="42" r="1.5"/>
      <circle cx="86" cy="40" r="1.5"/>
      <circle cx="94" cy="42" r="1.5"/>
      <circle cx="102" cy="40" r="1.5"/>
      
      <!-- Third row -->
      <circle cx="50" cy="49" r="1.5"/>
      <circle cx="58" cy="47" r="1.5"/>
      <circle cx="66" cy="49" r="1.5"/>
      <circle cx="74" cy="47" r="1.5"/>
      <circle cx="82" cy="49" r="1.5"/>
      <circle cx="90" cy="47" r="1.5"/>
      <circle cx="98" cy="49" r="1.5"/>
      
      <!-- Fourth row -->
      <circle cx="54" cy="56" r="1.5"/>
      <circle cx="62" cy="54" r="1.5"/>
      <circle cx="70" cy="56" r="1.5"/>
      <circle cx="78" cy="54" r="1.5"/>
      <circle cx="86" cy="56" r="1.5"/>
      <circle cx="94" cy="54" r="1.5"/>
    </g>
  </g>
  
  <!-- Text matching the reference -->
  <text x="150" y="140" font-family="serif" font-size="22" font-weight="normal" text-anchor="middle" fill="#333" letter-spacing="6px">HERITAGE</text>
  <line x1="120" y1="150" x2="180" y2="150" stroke="#DAA520" stroke-width="1"/>
  <text x="150" y="165" font-family="serif" font-size="12" text-anchor="middle" fill="#DAA520" font-style="italic">Lane &amp; Co</text>
</svg>