<svg width="400" height="200" viewBox="0 0 400 200" xmlns="http://www.w3.org/2000/svg">
  <!-- White background card -->
  <rect x="20" y="20" width="360" height="160" rx="15" ry="15" fill="white" stroke="#e5e5e5" stroke-width="1"/>
  
  <!-- Sofa Design matching your image exactly -->
  <g transform="translate(150, 50)">
    <!-- Back cushion with curved elegant top -->
    <path d="M-40 20 Q-45 0 -25 0 Q-10 -5 0 -5 Q10 -5 25 0 Q45 0 40 20 L40 35 Q42 40 35 40 L-35 40 Q-42 40 -40 35 Z" fill="#8B4513" stroke="#654321" stroke-width="1"/>
    
    <!-- Seat cushion - elegant rounded -->
    <path d="M-35 35 Q-40 30 -30 30 L30 30 Q40 30 35 35 Q38 42 30 42 L-30 42 Q-38 42 -35 35 Z" fill="#CD853F" stroke="#8B4513" stroke-width="1"/>
    
    <!-- Left armrest -->
    <path d="M-40 20 Q-50 15 -50 27 Q-50 35 -40 35" fill="#8B4513" stroke="#654321" stroke-width="1"/>
    
    <!-- Right armrest -->
    <path d="M40 20 Q50 15 50 27 Q50 35 40 35" fill="#8B4513" stroke="#654321" stroke-width="1"/>
    
    <!-- Legs -->
    <ellipse cx="-25" cy="47" rx="2" ry="6" fill="#654321"/>
    <ellipse cx="25" cy="47" rx="2" ry="6" fill="#654321"/>
    
    <!-- Decorative dots pattern on back cushion - matching your image -->
    <g fill="white" opacity="0.8">
      <!-- Dots arranged in elegant pattern -->
      <circle cx="-20" cy="10" r="1"/>
      <circle cx="-15" cy="8" r="1"/>
      <circle cx="-10" cy="10" r="1"/>
      <circle cx="-5" cy="8" r="1"/>
      <circle cx="0" cy="10" r="1"/>
      <circle cx="5" cy="8" r="1"/>
      <circle cx="10" cy="10" r="1"/>
      <circle cx="15" cy="8" r="1"/>
      <circle cx="20" cy="10" r="1"/>
      
      <circle cx="-22" cy="15" r="1"/>
      <circle cx="-17" cy="13" r="1"/>
      <circle cx="-12" cy="15" r="1"/>
      <circle cx="-7" cy="13" r="1"/>
      <circle cx="-2" cy="15" r="1"/>
      <circle cx="3" cy="13" r="1"/>
      <circle cx="8" cy="15" r="1"/>
      <circle cx="13" cy="13" r="1"/>
      <circle cx="18" cy="15" r="1"/>
      <circle cx="22" cy="13" r="1"/>
      
      <circle cx="-20" cy="20" r="1"/>
      <circle cx="-15" cy="18" r="1"/>
      <circle cx="-10" cy="20" r="1"/>
      <circle cx="-5" cy="18" r="1"/>
      <circle cx="0" cy="20" r="1"/>
      <circle cx="5" cy="18" r="1"/>
      <circle cx="10" cy="20" r="1"/>
      <circle cx="15" cy="18" r="1"/>
      <circle cx="20" cy="20" r="1"/>
      
      <circle cx="-17" cy="25" r="1"/>
      <circle cx="-12" cy="23" r="1"/>
      <circle cx="-7" cy="25" r="1"/>
      <circle cx="-2" cy="23" r="1"/>
      <circle cx="3" cy="25" r="1"/>
      <circle cx="8" cy="23" r="1"/>
      <circle cx="13" cy="25" r="1"/>
      <circle cx="17" cy="23" r="1"/>
    </g>
  </g>
  
  <!-- Text exactly matching your image -->
  <text x="200" y="130" font-family="Times, serif" font-size="24" font-weight="normal" text-anchor="middle" fill="#333" letter-spacing="8px">HERITAGE</text>
  <line x1="160" y1="140" x2="240" y2="140" stroke="#DAA520" stroke-width="1"/>
  <text x="200" y="155" font-family="Times, serif" font-size="14" text-anchor="middle" fill="#DAA520" font-style="italic">Lane &amp; Co</text>
</svg>